<?xml version="1.0" ?><!DOCTYPE svg  PUBLIC '-//W3C//DTD SVG 1.1//EN'  'http://www.w3.org/Graphics/SVG/1.1/DTD/svg11.dtd'><svg enable-background="new 0 0 70 70" id="Layer_1" version="1.1" viewBox="0 0 70 70" xml:space="preserve" xmlns="http://www.w3.org/2000/svg" xmlns:xlink="http://www.w3.org/1999/xlink"><g><path d="M26.3535156,66.5625c-1.3164063,0-2.9482422-0.1611328-3.8955078-1.4189453   c-0.7753906-1.03125-0.71875-2.3955078-0.6816406-3.2988281c0.0371094-0.90625-0.0273438-2.0869141-0.0898438-3.2285156   c-0.1796875-3.2841797-0.2324219-5.1748047,0.7724609-5.8408203c1.3916016-0.9228516,13.9619141-0.9492188,15.390625-0.9492188   c2.1679688,0,4.171875,0.03125,5.7949219,0.0927734c1.1152344,0.0419922,2.3789063,0.1582031,3.2675781,1.0214844   c1.0703125,1.0380859,1.0625,2.6640625,1.0585938,3.6357422l-0.0195313,4.2480469   c-0.0058594,1.109375-0.0136719,2.6289063-0.9316406,3.7724609C45.8837891,66.0078125,44,66.1669922,42.3232422,66.2050781   L26.3535156,66.5625z M37.8496094,53.3261719c-7.8056641,0-13.8476563,0.3710938-14.5927734,0.7177734   c-0.2958984,0.3955078-0.15625,2.9589844-0.0722656,4.4902344c0.0634766,1.1777344,0.1308594,2.3945313,0.0898438,3.3730469   c-0.0371094,0.9121094-0.0361328,1.7773438,0.3828125,2.3339844c0.5478516,0.7285156,1.7285156,0.8212891,2.6962891,0.8212891   l0.4111328-0.0048828l15.5205078-0.3525391c1.3427734-0.0302734,2.8339844-0.1396484,3.5654297-1.0478516   c0.5458984-0.6796875,0.5947266-1.6884766,0.6005859-2.8408203l0.0195313-4.2470703   c0.0048828-0.9912109-0.0380859-2.0048828-0.6035156-2.5527344c-0.5078125-0.4931641-1.4042969-0.5664063-2.2792969-0.5996094   C41.9833984,53.3574219,39.9990234,53.3261719,37.8496094,53.3261719z" fill="#373684"/><path d="M29.3955078,62.0380859c-0.7138672,0-1.6220703-0.0771484-2.3173828-0.6757813   c-0.6376953-0.5537109-0.9628906-1.4667969-0.8701172-2.4443359c0.0673828-0.7060547,0.2460938-1.6152344,1.0371094-2.390625   c0.5302734-0.5195313,1.9511719-0.6123047,7.3134766-0.7041016c1.6796875-0.0292969,3.4169922-0.0585938,4.7578125-0.1357422   c0.3515625-0.0195313,0.7060547-0.0390625,1.0595703-0.0390625c0.7724609,0,1.3896484,0.09375,1.9433594,0.2949219   c1.0449219,0.3798828,2.1035156,1.3583984,2.1123047,2.6884766c0.0068359,1.2548828-0.9609375,2.2441406-1.9228516,2.6669922   c-0.9433594,0.4140625-1.9521484,0.4414063-2.8417969,0.4658203l-9.8769531,0.2675781   C29.6601563,62.0351563,29.5283203,62.0380859,29.3955078,62.0380859z M28.2382813,57.65625   c-0.3173828,0.3378906-0.4746094,0.7519531-0.5361328,1.4042969c-0.046875,0.4882813,0.0898438,0.9345703,0.3574219,1.1669922   c0.2519531,0.2167969,0.6523438,0.3105469,1.3359375,0.3105469L29.75,60.5322266l9.8759766-0.2675781   c0.7890625-0.0214844,1.6054688-0.0429688,2.2792969-0.3388672c0.4960938-0.21875,1.0292969-0.7138672,1.0263672-1.2851563   c-0.0039063-0.578125-0.5683594-1.0849609-1.125-1.2871094c-0.3837891-0.1396484-0.8388672-0.2050781-1.4306641-0.2050781   c-0.3251953,0-0.6513672,0.0185547-0.9736328,0.0371094c-1.3710938,0.078125-3.1240234,0.1083984-4.8183594,0.1376953   C32.1816406,57.3642578,28.9121094,57.4208984,28.2382813,57.65625z" fill="#373684"/><path d="M46.3740234,53.8330078c-0.3828125,0-0.7089844-0.2910156-0.7460938-0.6796875   c-0.1279297-1.3691406-1.34375-2.2675781-2.6298828-3.2177734c-0.5957031-0.4404297-1.2119141-0.8955078-1.71875-1.4082031   c-1.1542969-1.1669922-1.7402344-2.671875-2.3056641-4.1269531c-0.1035156-0.265625-0.2070313-0.53125-0.3134766-0.7929688   c-0.9521484-2.3457031-0.7246094-5.2421875,0.6386719-8.1572266c0.8378906-1.7910156,1.9853516-3.40625,3.09375-4.9677734   c0.3984375-0.5605469,0.7958984-1.1220703,1.1806641-1.6904297c3.6914063-5.4677734,6.1162109-11.8134766,7.0107422-18.3505859   c0.3037109-2.2177734,0.0166016-3.6484375-0.8798828-4.3759766c-0.7685547-0.6240234-1.8964844-0.6777344-3.1826172-0.6816406   L23.8935547,5.3134766c-1.1806641-0.0068359-2.4042969,0.0478516-3.1015625,0.7314453   c-0.6552734,0.6416016-0.7666016,1.7724609-0.7880859,2.7929688c-0.1220703,5.5195313,1.2070313,11.0009766,3.84375,15.8515625   c0.7666016,1.4111328,1.6601563,2.7949219,2.5234375,4.1337891c0.7773438,1.2041016,1.5810547,2.4492188,2.3037109,3.7275391   c1.8916016,3.3515625,2.8027344,6.328125,2.7871094,9.1015625c-0.0185547,3.2353516-2.1933594,6.5771484-3.6503906,8.0341797   c-0.578125,0.578125-1.234375,0.9912109-1.8144531,1.3554688c-1.0507813,0.6611328-1.6513672,1.0761719-1.7919922,1.9228516   c-0.0693359,0.4091797-0.4511719,0.6826172-0.8632813,0.6171875c-0.4082031-0.0683594-0.6845703-0.4541016-0.6171875-0.8632813   c0.2587891-1.5527344,1.3847656-2.2607422,2.4736328-2.9462891c0.5380859-0.3378906,1.09375-0.6875,1.5527344-1.1464844   c1.2333984-1.2333984,3.1953125-4.21875,3.2109375-6.9814453c0.0146484-2.5058594-0.8339844-5.2392578-2.59375-8.3554688   c-0.7001953-1.2402344-1.4912109-2.4667969-2.2568359-3.6523438c-0.8789063-1.3623047-1.7880859-2.7705078-2.5820313-4.2304688   c-2.7607422-5.0800781-4.1523438-10.8212891-4.0253906-16.6005859c0.0283203-1.3232422,0.1982422-2.8134766,1.2392578-3.8330078   c1.1015625-1.0791016,2.6269531-1.1630859,4.1552734-1.1591797l22.6269531,0.0703125   c1.5185547,0.0048828,2.9765625,0.0859375,4.1240234,1.0175781c1.9873047,1.6123047,1.5605469,4.7216797,1.4208984,5.7431641   c-0.9257813,6.7636719-3.4345703,13.3300781-7.2548828,18.9873047c-0.3896484,0.578125-0.7949219,1.1484375-1.2001953,1.71875   c-1.0703125,1.5078125-2.1767578,3.0664063-2.9570313,4.734375c-0.6865234,1.4677734-1.6777344,4.3212891-0.6074219,6.9580078   c0.1083984,0.2685547,0.2148438,0.5410156,0.3203125,0.8134766c0.5341797,1.3730469,1.0390625,2.6699219,1.9746094,3.6162109   c0.4248047,0.4296875,0.96875,0.8310547,1.5439453,1.2558594c1.4248047,1.0537109,3.0410156,2.2480469,3.2324219,4.2841797   c0.0380859,0.4130859-0.2646484,0.7783203-0.6767578,0.8173828C46.4208984,53.8320313,46.3974609,53.8330078,46.3740234,53.8330078   z" fill="#373684"/><path d="M45.3720703,28.4082031c-0.2773438,0-0.5429688-0.1533203-0.6738281-0.4179688   c-0.1826172-0.3720703-0.0302734-0.8212891,0.3408203-1.0048828c3.9013672-1.921875,7.546875-4.3398438,10.8359375-7.1845703   c1.0205078-0.8828125,2.1582031-1.9355469,2.7324219-3.25c0.7695313-1.7597656,0.3994141-3.9755859-0.8994141-5.3886719   c-1.2587891-1.3730469-3.6962891-1.9550781-5.5449219-1.3271484c-0.3925781,0.1337891-0.8193359-0.0761719-0.9511719-0.46875   c-0.1337891-0.3925781,0.0771484-0.8183594,0.46875-0.9511719c2.4082031-0.8154297,5.4726563-0.0732422,7.1328125,1.7314453   c1.6875,1.8388672,2.1689453,4.71875,1.1689453,7.0048828c-0.7001953,1.6015625-1.9804688,2.7929688-3.1269531,3.7841797   c-3.3847656,2.9287109-7.1376953,5.4160156-11.1523438,7.3955078   C45.5957031,28.3837891,45.4833984,28.4082031,45.3720703,28.4082031z" fill="#373684"/><path d="M24.9169922,28.75c-0.078125,0-0.1572266-0.0117188-0.2353516-0.0380859   c-5.0644531-1.6699219-9.7441406-6.2607422-11.5205078-8.1572266c-1.4335938-1.5302734-2.4384766-3.1230469-3.0742188-4.8681641   c-0.7763672-2.1337891-0.6337891-4.3964844,0.3808594-6.0546875c0.9189453-1.5019531,2.5800781-2.5273438,4.3349609-2.6767578   c1.7509766-0.1435547,3.5644531,0.5820313,4.7236328,1.90625c0.2724609,0.3115234,0.2412109,0.7861328-0.0703125,1.0585938   c-0.3105469,0.2705078-0.7851563,0.2412109-1.0585938-0.0703125c-0.8525391-0.9736328-2.1894531-1.5048828-3.4677734-1.4003906   C13.6416016,8.5595703,12.421875,9.3125,11.7470703,10.4150391c-0.7783203,1.2714844-0.8720703,3.0507813-0.25,4.7578125   c0.5644531,1.5517578,1.4667969,2.9765625,2.7587891,4.3564453c3.5361328,3.7744141,7.609375,6.6748047,10.8964844,7.7587891   c0.3925781,0.1289063,0.6064453,0.5537109,0.4765625,0.9472656C25.5253906,28.5498047,25.2324219,28.75,24.9169922,28.75z" fill="#373684"/><path d="M23.9355469,15.6259766c-0.2646484,0-0.5205078-0.1396484-0.6572266-0.3867188   c-0.8554688-1.5478516-1.3886719-3.2988281-1.5400391-5.0625c-0.0576172-0.6630859-0.0625-1.6279297,0.5488281-2.3388672   c0.4179688-0.4863281,1.0576172-0.7724609,1.7998047-0.8056641c0.5791016-0.0292969,1.1210938,0.0966797,1.6015625,0.2070313   c0.4042969,0.0927734,0.65625,0.4951172,0.5644531,0.8984375c-0.0927734,0.4042969-0.5,0.6572266-0.8984375,0.5644531   c-0.4248047-0.0976563-0.8359375-0.1826172-1.1972656-0.171875c-0.3183594,0.0146484-0.5917969,0.1210938-0.7333984,0.2861328   c-0.2421875,0.2822266-0.2255859,0.8378906-0.1914063,1.2314453c0.1337891,1.5556641,0.6035156,3.1005859,1.3583984,4.4648438   c0.2001953,0.3632813,0.0693359,0.8193359-0.2929688,1.0195313C24.1826172,15.5957031,24.0576172,15.6259766,23.9355469,15.6259766   z" fill="#373684"/><path d="M40.8554688,28.6103516c-0.1845703,0-0.3691406-0.0673828-0.5136719-0.203125   c-0.3017578-0.2841797-0.3164063-0.7587891-0.0332031-1.0605469c1.6201172-1.7246094,2.8017578-3.8447266,3.4169922-6.1298828   c0.109375-0.3984375,0.5205078-0.6357422,0.9199219-0.5292969c0.3994141,0.1083984,0.6367188,0.5195313,0.5292969,0.9199219   c-0.6796875,2.5224609-1.984375,4.8623047-3.7724609,6.7666016C41.2548828,28.53125,41.0546875,28.6103516,40.8554688,28.6103516z" fill="#373684"/><path d="M48.8378906,22.34375c-0.3056641,0-0.59375-0.1884766-0.7041016-0.4921875   c-0.1425781-0.3896484,0.0576172-0.8203125,0.4462891-0.9619141c2.6337891-0.9619141,4.6230469-1.9902344,5.7724609-3.8789063   c0.3935547-0.6484375,0.8066406-1.5888672,0.5351563-2.3916016c-0.1748047-0.5175781-0.6630859-0.9853516-1.3066406-1.2509766   c-0.6894531-0.2871094-1.4931641-0.34375-2.1875-0.3613281c-0.4140625-0.0107422-0.7412109-0.3554688-0.7304688-0.7695313   c0.0107422-0.4072266,0.3447266-0.7304688,0.75-0.7304688c0.0058594,0,0.0126953,0,0.0195313,0   c0.8320313,0.0214844,1.8066406,0.0947266,2.7226563,0.4755859c1.0527344,0.4355469,1.8378906,1.2216797,2.1533203,2.15625   c0.3623047,1.0683594,0.1279297,2.3310547-0.6748047,3.6513672c-1.5292969,2.5146484-4.1767578,3.6455078-6.5380859,4.5078125   C49.0107422,22.3291016,48.9238281,22.34375,48.8378906,22.34375z" fill="#373684"/><path d="M21.1669922,22.2919922c-0.1035156,0-0.2080078-0.0214844-0.3085938-0.0664063   c-2.3652344-1.0673828-4.1298828-2.5800781-6.0908203-5.2197266c-1.1513672-1.5537109-1.4541016-2.984375-0.8769531-4.1386719   c0.4853516-0.9658203,1.5634766-1.5878906,2.8164063-1.625c1.0068359-0.0283203,1.9404297,0.2939453,2.8125,0.6259766   c0.3876953,0.1474609,0.5820313,0.5810547,0.4345703,0.9677734c-0.1484375,0.3876953-0.5820313,0.5800781-0.9677734,0.4345703   c-0.7617188-0.2900391-1.5068359-0.5507813-2.2363281-0.5283203c-0.5644531,0.0166016-1.2529297,0.2695313-1.5185547,0.796875   c-0.4082031,0.8173828,0.2890625,1.9628906,0.7412109,2.5732422c1.7949219,2.4169922,3.3896484,3.7919922,5.5029297,4.7460938   c0.3769531,0.1699219,0.5449219,0.6142578,0.375,0.9921875C21.7255859,22.1279297,21.4521484,22.2919922,21.1669922,22.2919922z" fill="#373684"/></g></svg>